<?xml version="1.0" encoding="UTF-8" standalone="no"?><svg xmlns:svg="http://www.w3.org/2000/svg" xmlns="http://www.w3.org/2000/svg" version="1.1" style="overflow:visible" viewBox="-250 -250 500 500" height="500px" width="500px"><rect fill-opacity="0" fill="rgb(0,0,0)" height="500" width="500" y="-250" x="-250" /><svg version="1.1" y="-250" x="-250" viewBox="-250 -250 500 500" height="500px" width="500px" style="overflow:visible"><g transform="rotate(0,0,0)" stroke-linejoin="round" fill="#fff"><path stroke-linecap="butt" stroke-linejoin="round" stroke="none" fill="rgb(255,218,51)" d="m-5.541-165.6923c-78.3412 0-144.082 50.0967-162.174 129.384999c-35.6049-0.41339-35.4812 51.1494-4.77344 53.2285c3.67206 95.6772 71.7154 145.002 156.947 148.557l10-41.6924l10 41.6924c85.232-3.55417 153.277-52.8794 156.949-148.557h6.99023c14.7376 0 26.6016-11.8686 26.6016-26.6133s-11.8639-26.6152-26.6016-26.6152h-11.7656c-18.0915-79.2882-83.8326-129.385-162.174-129.385z" /><path stroke-linecap="butt" stroke-linejoin="round" stroke="none" fill="rgb(68,68,68)" d="m-5.541 56.591a34.3361 34.3525 0 0 0-34.3359 34.3516a34.3361 34.3525 0 0 0 24.3359 32.8555v41.6797c3.30947 0.13801 6.64145 0.21485 10 0.21485s6.69052-0.0768 10-0.21485v-41.7051a34.3361 34.3525 0 0 0 24.3359-32.8301a34.3361 34.3525 0 0 0-34.3359-34.3516z" /><path stroke-linecap="butt" stroke-linejoin="round" stroke="none" fill="rgb(216,182,30)" d="m-171.1583-23.188a10.001 10.001 0 1 0 0 20h331.234a10.001 10.001 0 1 0 0-20z" /><path stroke-linecap="butt" stroke-linejoin="round" stroke="none" fill="rgb(255,255,255)" d="m102.708-50.451c-12.6905 20.4203-33.169 5.03669-58.3245-10.5965c-25.1555-15.6332-45.049-32.5838-32.3585-53.0041c12.6905-20.4203 42.9577-17.3132 68.1131-1.68005c25.1555 15.6332 35.2603 44.8604 22.5698 65.280699z" /><path stroke-linecap="butt" stroke-linejoin="round" stroke-width="10" stroke-opacity="1" stroke="rgb(68,68,68)" fill="none" d="m-5.541-165.692401c-78.3412 0-144.081 50.0964-162.173 129.383998c-35.6049-0.41339-35.4822 51.1508-4.77444 53.2299c3.81464 99.3922 77.0929 148.771 166.947 148.771c89.8544 0 163.135-49.3783 166.949-148.771h6.98967c14.7376 0 26.6023-11.8703 26.6023-26.6149s-11.8646-26.6149-26.6023-26.6149h-11.7641c-18.0915-79.2882-83.8338-129.384-162.175-129.384z" /></g></svg></svg>